<?xml version="1.0" standalone="no"?>
<!DOCTYPE svg PUBLIC "-//W3C//DTD SVG 20010904//EN"
 "http://www.w3.org/TR/2001/REC-SVG-20010904/DTD/svg10.dtd">
<svg version="1.0" xmlns="http://www.w3.org/2000/svg"
 width="192.000000pt" height="192.000000pt" viewBox="0 0 192.000000 192.000000"
 preserveAspectRatio="xMidYMid meet">
<metadata>
Created by potrace 1.14, written by Peter Selinger 2001-2017
</metadata>
<g transform="translate(0.000000,192.000000) scale(0.100000,-0.100000)"
fill="#000000" stroke="none">
<path d="M224 1758 c-18 -4 -40 -20 -50 -35 -18 -27 -19 -63 -20 -753 -2 -801
-3 -779 60 -805 24 -9 199 -12 756 -11 682 1 727 2 752 19 14 10 30 26 34 35
4 9 9 343 10 742 2 782 2 773 -50 803 -25 14 -1439 19 -1492 5z m812 -993 c1
-303 -5 -346 -60 -401 -61 -61 -182 -73 -273 -28 -45 22 -123 96 -123 117 0 4
25 23 55 43 l55 37 32 -32 c51 -49 125 -54 149 -8 8 14 13 109 14 281 1 144 3
261 4 262 0 1 34 1 74 0 l72 -1 1 -270z m442 246 c21 -11 51 -36 66 -55 l27
-35 -55 -36 -54 -36 -25 25 c-50 50 -130 42 -142 -14 -10 -46 8 -65 112 -115
173 -83 209 -127 201 -247 -7 -86 -37 -130 -115 -165 -48 -22 -65 -25 -137
-21 -56 3 -94 11 -122 26 -42 21 -114 96 -114 117 0 10 89 75 103 75 2 0 25
-20 49 -45 41 -41 50 -45 92 -45 36 0 52 5 71 25 14 13 25 31 25 39 0 44 -20
63 -123 113 -154 76 -193 127 -185 243 6 86 58 146 148 170 43 11 138 1 178
-19z"/>
</g>
</svg>
